<?xml version="1.0" encoding="UTF-8" standalone="no"?>
<!-- Created with Inkscape (http://www.inkscape.org/) -->

<svg
   width="151.87823"
   height="21.627272"
   viewBox="0 0 40.184452 5.7222157"
   version="1.1"
   id="svg1341"
   inkscape:version="1.1.1 (3bf5ae0d25, 2021-09-20)"
   sodipodi:docname="logo.svg"
   xmlns:inkscape="http://www.inkscape.org/namespaces/inkscape"
   xmlns:sodipodi="http://sodipodi.sourceforge.net/DTD/sodipodi-0.dtd"
   xmlns="http://www.w3.org/2000/svg"
   xmlns:svg="http://www.w3.org/2000/svg">
  <sodipodi:namedview
     id="namedview1343"
     pagecolor="#ffffff"
     bordercolor="#666666"
     borderopacity="1.0"
     inkscape:pageshadow="2"
     inkscape:pageopacity="0.0"
     inkscape:pagecheckerboard="0"
     inkscape:document-units="mm"
     showgrid="false"
     fit-margin-top="1"
     fit-margin-left="2"
     fit-margin-right="2"
     fit-margin-bottom="1"
     inkscape:zoom="6.4070144"
     inkscape:cx="46.433484"
     inkscape:cy="17.246723"
     inkscape:window-width="1920"
     inkscape:window-height="991"
     inkscape:window-x="-9"
     inkscape:window-y="-9"
     inkscape:window-maximized="1"
     inkscape:current-layer="layer1"
     units="cm"
     scale-x="1.9" />
  <defs
     id="defs1338" />
  <g
     inkscape:label="Layer 1"
     inkscape:groupmode="layer"
     id="layer1"
     transform="translate(-45.711897,-140.02308)">
    <g
       id="g975"
       transform="matrix(0.5035079,0,0,0.5035079,22.958323,72.230024)">
      <path
         id="FAU_x5F_Logo_00000087384039772143529630000018440013674716552331_"
         style="fill:#04316a;stroke-width:0.0526145"
         d="m 46.241064,136.30733 0.512677,-0.51268 v 9.31015 h -0.512677 z m 1.53803,-0.43045 h 6.15196 v -0.51267 h -6.664637 v 6.15191 h 5.662487 v -0.51257 h -5.14981 z m 5.921719,4.10132 h -4.896419 v -2.05061 h 4.187437 l 0.512677,-0.51267 h -4.700114 v -0.51268 h 5.12666 v -0.51267 h -5.639337 v 4.1013 h 4.903154 z m -6.434396,5.1266 h 0.512677 v -2.56333 h 0.512676 v 2.13289 l 0.512676,-0.51262 v -1.62027 h 4.124511 v -0.51262 h -5.66254 z m 24.959898,-9.74059 v 5.89568 c 0,1.37187 -0.612112,2.55049 -2.040379,3.45446 l -0.01158,-0.0151 c 0.938478,-0.74429 1.53928,-1.7003 1.53928,-2.93532 v -6.39968 h -0.512677 v 6.39116 c 0,1.8404 -1.491932,3.22122 -3.332329,3.22122 -1.840392,0 -3.332268,-1.38087 -3.332268,-3.22122 v -5.96078 l -0.51268,0.51267 v 5.45661 c 0,2.12353 1.721437,3.7168 3.844948,3.7168 0.04912,0 0.512677,0 0.512677,0 2.091055,0 4.357622,-1.54423 4.357622,-4.21337 0,-0.003 0,-5.90315 0,-5.90315 z m -4.357622,9.09975 c 1.556388,0 2.81818,-1.15263 2.819602,-2.70855 v 0 -5.96076 l -0.512672,0.51268 v 4.9525 c 0,0.991 -0.803369,1.66615 -1.794308,1.66615 -0.990938,0 -1.794306,-0.6752 -1.794306,-1.66615 v -5.89557 h -0.512673 v 5.89563 c 0,1.27411 1.032871,2.17882 2.306979,2.17882 0.520982,0 1.153358,-0.25739 1.582953,-0.71045 l 0.01153,0.0151 c -0.402757,0.74686 -1.147202,1.20803 -2.107098,1.20803 -1.266267,0 -2.294141,-0.91675 -2.306665,-2.17882 h -3.94e-4 v -6.40828 h -0.512673 v 6.40825 h 1.98e-4 c 0.01068,1.54723 1.268791,2.69145 2.819387,2.69145 z m -11.39204,-2.43511 -1.296423,3.07595 0.512729,-5e-5 -5.2e-5,5e-5 h 5.2e-5 l 0.648159,-1.53798 h 4.343545 l 0.647578,1.53798 h 0.512681 l -0.863461,-2.05065 h -4.424308 l 0.216089,-0.51268 h 4.505017 l 1.079336,2.56333 h 0.512675 l -1.295157,-3.07595 z m 0.754336,-6.66464 -3.767731,8.93701 0.326315,0.44302 3.954093,-9.38003 z m 2.050653,5e-5 3.949145,9.38003 0.325474,-0.44302 -3.761994,-8.93701 z m -3.10263,6.15191 -1.516247,3.58863 h -0.512676 l 3.849862,-9.13189 2.118156,5.03058 h 0.51268 l -2.374445,-5.63923 h 0.512676 l 2.590321,6.15191 z m 2.334931,-3.10494 -1.092489,2.59232 h 2.183978 z m -2.119105,2.59232 h 0.513939 l 1.348933,-3.20086 -0.256707,-0.60965 z" />
      <g
         id="g1565"
         style="font-weight:700;font-size:400px;font-family:'FAU Chimera', 'FAU Chimera_MSFontService', sans-serif;fill:#243975"
         transform="matrix(0.0289622,0,0,0.02882498,75.46694,143.5949)">
        <path
           d="M 64.029372,-273.19783 H 31.917919 v 23.80577 H 59.99351 v 12.34156 H 31.917919 v 32.22843 h -15.20761 v -80.71733 h 47.319063 z"
           style="font-weight:700;font-size:400px;font-family:'FAU Chimera', 'FAU Chimera_MSFontService', sans-serif;fill:#243975;stroke-width:0.299471"
           id="path924" />
        <path
           d="M 88.712492,-265.53552 H 74.323754 l -0.117005,60.71345 H 88.71247 v -31.40955 q 0,-3.50948 0.935852,-6.49248 0.935854,-3.04154 2.80756,-5.43966 1.813216,-2.39811 4.211337,-3.56794 2.398126,-1.2283 5.322661,-1.2283 1.69624,0 3.217,0.29245 1.57925,0.29245 2.92454,0.87735 v -13.86231 q -0.76038,-0.23397 -1.81322,-0.29245 -0.99434,-0.11703 -2.28114,-0.11703 -5.556624,0 -9.417017,2.86606 -3.801906,2.80757 -5.907573,8.42268 z"
           style="font-weight:700;font-size:400px;font-family:'FAU Chimera', 'FAU Chimera_MSFontService', sans-serif;fill:#243975;stroke-width:0.299471"
           id="path926" />
        <path
           d="m 115.73525,-283.78468 q 0,1.81323 0.5849,3.39247 0.6434,1.52077 1.9302,2.80758 1.28679,1.28679 2.80757,1.9302 1.52075,0.6434 3.33397,0.6434 1.81322,0 3.27549,-0.6434 1.52076,-0.64341 2.80755,-1.9302 1.2868,-1.28681 1.87171,-2.80758 0.6434,-1.57924 0.6434,-3.39247 0,-1.8132 -0.6434,-3.27546 -0.58491,-1.52077 -1.87171,-2.80758 -1.28679,-1.28678 -2.80755,-1.87168 -1.46227,-0.64341 -3.27549,-0.64341 -1.81322,0 -3.33397,0.64341 -1.52078,0.5849 -2.80757,1.87168 -1.2868,1.28681 -1.9302,2.80758 -0.5849,1.46226 -0.5849,3.27546 z m 1.40377,78.96261 h 14.38875 v -60.71345 h -14.38875 z"
           style="font-weight:700;font-size:400px;font-family:'FAU Chimera', 'FAU Chimera_MSFontService', sans-serif;fill:#243975;stroke-width:0.299471"
           id="path928" />
        <path
           d="m 194.05445,-220.61458 q -3.27551,2.39812 -7.36986,3.6264 -4.09436,1.16983 -8.8321,1.16983 -7.42833,0 -12.40006,-3.45097 -4.91323,-3.50943 -6.49248,-10.11889 h 38.07752 q 0.40943,-2.63208 0.58492,-4.79624 0.23395,-2.16416 0.23395,-3.80192 0,-6.84341 -1.75471,-12.10758 -1.69625,-5.32265 -5.14719,-8.8906 -3.45097,-3.56794 -8.18872,-5.38115 -4.73776,-1.81322 -10.64533,-1.81322 -5.90757,0 -10.8793,2.10565 -4.97172,2.04719 -8.8906,6.14153 -3.91888,4.15285 -5.90757,9.88496 -1.98869,5.73209 -1.98869,12.92646 0,6.78495 2.10567,12.40006 2.10567,5.55662 6.25852,9.82645 4.15284,4.32832 9.88494,6.49249 5.79059,2.16416 12.98497,2.16416 5.96606,0.0585 10.58683,-0.93586 4.62078,-0.99434 7.77929,-2.98302 z m -9.82646,-19.53593 h -25.502 q 1.05283,-7.19438 4.79624,-10.93778 3.8019,-3.80192 8.94909,-3.80192 5.61513,0 8.53967,3.56795 2.98303,3.50945 3.217,9.35853 z"
           style="font-weight:700;font-size:400px;font-family:'FAU Chimera', 'FAU Chimera_MSFontService', sans-serif;fill:#243975;stroke-width:0.299471"
           id="path930" />
        <path
           d="m 252.25279,-289.51676 v 33.28128 q -3.15849,-5.08871 -7.77926,-7.60382 -4.5623,-2.57357 -10.46989,-2.57357 -5.73207,0 -10.46983,2.10565 -4.67926,2.10566 -8.36418,6.31702 -3.68493,4.21131 -5.55663,10.00193 -1.81322,5.73208 -1.81322,12.86795 0,6.434 1.75472,11.99062 1.75472,5.49815 5.26417,10.00193 3.45097,4.56228 8.18872,6.84343 4.79626,2.28114 10.7623,2.28114 6.08306,0 10.70384,-2.57359 4.67925,-2.6321 7.77926,-7.72079 v 9.47551 h 14.33025 v -84.69469 z m -15.09064,73.17201 q -3.10001,0 -5.73211,-1.2868 -2.57357,-1.28681 -4.67925,-3.86041 -2.10565,-2.57359 -3.1585,-5.90755 -1.05283,-3.39249 -1.05283,-7.48683 0,-4.5623 1.05283,-8.13023 1.05285,-3.56794 3.21701,-6.08304 2.16415,-2.51512 4.73775,-3.8019 2.6321,-1.28681 5.73211,-1.28681 2.92453,0 5.49812,1.16981 2.6321,1.11135 4.91323,3.45097 2.28114,2.33963 3.39248,5.84908 1.1698,3.45095 1.1698,8.01323 0,4.67927 -1.05283,8.30572 -1.05285,3.56792 -3.21699,6.08301 -2.16418,2.51512 -4.91323,3.74343 -2.69058,1.22832 -5.90759,1.22832 z"
           style="font-weight:700;font-size:400px;font-family:'FAU Chimera', 'FAU Chimera_MSFontService', sans-serif;fill:#243975;stroke-width:0.299471"
           id="path932" />
        <path
           d="m 296.53032,-265.53552 h -14.38873 l -0.1168,60.71345 h 14.5057 v -31.40955 q 0,-3.50948 0.93587,-6.49248 0.93586,-3.04154 2.80755,-5.43966 1.8132,-2.39811 4.21135,-3.56794 2.39811,-1.2283 5.32264,-1.2283 1.69624,0 3.21701,0.29245 1.57924,0.29245 2.92453,0.87735 v -13.86231 q -0.76037,-0.23397 -1.81322,-0.29245 -0.99432,-0.11703 -2.28112,-0.11703 -5.55664,0 -9.41703,2.86606 -3.8019,2.80757 -5.90758,8.42268 z"
           style="font-weight:700;font-size:400px;font-family:'FAU Chimera', 'FAU Chimera_MSFontService', sans-serif;fill:#243975;stroke-width:0.299471"
           id="path934" />
        <path
           d="m 323.5531,-283.78468 q 0,1.81323 0.5849,3.39247 0.64338,1.52077 1.9302,2.80758 1.28679,1.28679 2.80755,1.9302 1.52075,0.6434 3.33399,0.6434 1.8132,0 3.27547,-0.6434 1.52074,-0.64341 2.80755,-1.9302 1.28681,-1.28681 1.87171,-2.80758 0.64343,-1.57924 0.64343,-3.39247 0,-1.8132 -0.64343,-3.27546 -0.5849,-1.52077 -1.87171,-2.80758 -1.28681,-1.28678 -2.80755,-1.87168 -1.46227,-0.64341 -3.27547,-0.64341 -1.81324,0 -3.33399,0.64341 -1.52076,0.5849 -2.80755,1.87168 -1.28682,1.28681 -1.9302,2.80758 -0.5849,1.46226 -0.5849,3.27546 z m 1.40379,78.96261 h 14.3887 v -60.71345 h -14.3887 z"
           style="font-weight:700;font-size:400px;font-family:'FAU Chimera', 'FAU Chimera_MSFontService', sans-serif;fill:#243975;stroke-width:0.299471"
           id="path936" />
        <path
           d="m 367.01179,-235.00332 q 0.0585,-4.38682 1.34525,-7.89627 1.34528,-3.50944 3.9189,-6.14152 2.57359,-2.6321 5.96608,-3.91889 3.39245,-1.34529 7.54531,-1.34529 3.86038,0 7.25283,0.99432 3.45096,0.93587 6.43399,2.86606 v -12.6925 q -3.10001,-1.69625 -6.90191,-2.5151 -3.8019,-0.87737 -8.18872,-0.87737 -7.36983,0 -13.27741,2.28114 -5.90756,2.28114 -10.11889,6.84344 -4.26984,4.56227 -6.49249,10.17739 -2.16416,5.61513 -2.22266,12.22459 0,6.72643 2.16416,12.34156 2.16416,5.61513 6.4925,10.0019 4.32832,4.38682 10.00192,6.66796 5.73208,2.22265 12.6925,2.22265 4.73775,0 8.71514,-0.93584 3.97736,-0.93585 7.13586,-2.74908 v -12.45851 q -3.1585,2.04715 -6.66792,3.10001 -3.45099,0.99432 -7.13593,0.99432 -4.21131,0 -7.6038,-1.28678 -3.33394,-1.34532 -5.84904,-4.03586 -2.51514,-2.6321 -3.80191,-6.08306 -1.2868,-3.50945 -1.40376,-7.77927 z"
           style="font-weight:700;font-size:400px;font-family:'FAU Chimera', 'FAU Chimera_MSFontService', sans-serif;fill:#243975;stroke-width:0.299471"
           id="path938" />
        <path
           d="m 426.14598,-289.51676 h -14.38876 v 84.69469 h 14.38876 v -32.57939 q 0,-4.50377 1.05281,-7.72079 1.05284,-3.27548 3.10004,-5.26416 2.04715,-1.98869 4.32832,-2.92456 2.3396,-0.99432 4.91322,-0.99432 4.67928,0 7.60381,3.27548 2.92453,3.217 2.92453,8.94907 v 37.25867 h 14.38874 v -39.77376 q 0,-5.26417 -1.40378,-9.30003 -1.34529,-4.03588 -4.03586,-6.84343 -2.6906,-2.74906 -6.317,-4.15282 -3.62645,-1.40381 -8.01325,-1.40381 -6.78493,0.0585 -11.46421,2.86608 -4.62077,2.74904 -7.07737,8.1887 z"
           style="font-weight:700;font-size:400px;font-family:'FAU Chimera', 'FAU Chimera_MSFontService', sans-serif;fill:#243975;stroke-width:0.299471"
           id="path940" />
        <path
           d="m 479.39366,-230.44105 v -12.1076 h 30.47372 v 12.1076 z"
           id="path942"
           style="stroke-width:0.299471" />
        <path
           d="m 576.89317,-204.82207 h 16.26046 l -27.31524,-80.71733 h -19.53591 l -27.31522,80.71733 h 15.851 l 5.73209,-18.30763 h 30.53223 z m -32.34544,-30.64919 1.05285,-3.50944 q 4.56228,-14.6227 7.13588,-23.45481 2.63209,-8.8906 3.15851,-11.87366 l 0.46792,2.39814 q 0.29245,1.11133 1.11132,3.91888 0.81887,2.74908 2.10566,7.1359 1.28683,4.3868 2.92455,9.88492 1.63774,5.43965 3.68491,11.87365 l 1.1113,3.62642 z"
           id="path944"
           style="stroke-width:0.299471" />
        <path
           d="m 604.73477,-204.82207 v -84.69469 h 14.38875 v 84.69469 z"
           id="path946"
           style="stroke-width:0.299471" />
        <path
           d="m 681.6502,-220.61458 q -3.27549,2.39812 -7.36985,3.6264 -4.09437,1.16983 -8.83212,1.16983 -7.42832,0 -12.40001,-3.45097 -4.91326,-3.50943 -6.49251,-10.11889 h 38.0775 q 0.40946,-2.63208 0.58492,-4.79624 0.23397,-2.16416 0.23397,-3.80192 0,-6.84341 -1.75474,-12.10758 -1.6962,-5.32265 -5.14719,-8.8906 -3.45095,-3.56794 -8.18868,-5.38115 -4.73775,-1.81322 -10.64534,-1.81322 -5.90759,0 -10.8793,2.10565 -4.97171,2.04719 -8.8906,6.14153 -3.91889,4.15285 -5.90758,9.88496 -1.98867,5.73209 -1.98867,12.92646 0,6.78495 2.10563,12.40006 2.1057,5.55662 6.25856,9.82645 4.15285,4.32832 9.88493,6.49249 5.79058,2.16416 12.98497,2.16416 5.96605,0.0585 10.58682,-0.93586 4.62078,-0.99434 7.77929,-2.98302 z m -9.82645,-19.53593 h -25.50201 q 1.05284,-7.19438 4.79626,-10.93778 3.8019,-3.80192 8.94909,-3.80192 5.61512,0 8.53965,3.56795 2.98303,3.50945 3.21701,9.35853 z"
           id="path948"
           style="stroke-width:0.299471" />
        <path
           d="m 728.91079,-235.35427 20.35478,30.5322 h -15.90951 l -11.99059,-20.35481 -12.45856,20.35481 h -15.79252 l 21.17367,-30.64919 -19.88689,-30.06426 h 16.20199 l 11.34721,19.76988 11.99062,-19.76988 h 16.08495 z"
           id="path950"
           style="stroke-width:0.299471" />
        <path
           d="m 761.0222,-249.1581 q 4.03587,-2.69058 8.48122,-4.03587 4.50375,-1.34528 9.3585,-1.34528 6.317,0 8.9491,2.63209 2.69055,2.63208 2.69055,7.66229 v 3.74341 h -8.89059 q -12.22459,0 -18.71707,4.91322 -6.43397,4.91324 -6.43397,13.51138 0,3.8019 1.28678,7.0189 1.28681,3.15849 3.80193,5.67361 2.51509,2.5151 5.96605,3.8019 3.45098,1.22832 7.7208,1.22832 5.79058,0 9.76797,-1.93021 3.97736,-1.9887 6.08304,-5.84908 v 7.31135 h 14.27174 v -38.83789 q 0,-11.4642 -6.20002,-17.19629 -6.20002,-5.79061 -18.4831,-5.79061 -6.37548,0 -11.34724,1.05283 -4.9132,1.05283 -8.30569,3.15852 z m 29.47937,18.24914 v 5.73208 q 0,4.5623 -2.74906,7.36986 -2.69054,2.80754 -7.48679,2.80754 -4.38683,0 -6.60951,-1.93019 -2.22262,-1.93019 -2.22262,-5.73209 0,-3.62643 2.98303,-5.90756 3.04154,-2.33964 8.65667,-2.33964 z"
           id="path952"
           style="stroke-width:0.299471" />
        <path
           d="m 834.5452,-265.53552 h -14.38877 v 60.71345 h 14.38877 v -32.57939 q 0,-4.03586 0.93585,-7.19437 0.99432,-3.15849 2.92453,-5.32265 1.87169,-2.16417 4.21133,-3.27549 2.39811,-1.11132 5.20567,-1.11132 4.91322,0 7.77929,3.1 2.86605,3.04153 2.86605,9.00759 v 37.37563 h 14.3887 v -40.35866 q 0,-10.06041 -5.26417,-15.55856 -5.26415,-5.55663 -14.38874,-5.55663 -6.72642,0.0585 -11.40569,2.86608 -4.67925,2.74904 -7.25282,8.30568 z"
           id="path954"
           style="stroke-width:0.299471" />
        <path
           d="m 929.06632,-289.51676 v 33.28128 q -3.1585,-5.08871 -7.77928,-7.60382 -4.5623,-2.57357 -10.46984,-2.57357 -5.73213,0 -10.46988,2.10565 -4.67926,2.10566 -8.36418,6.31702 -3.68493,4.21131 -5.55665,10.00193 -1.81317,5.73208 -1.81317,12.86795 0,6.434 1.7547,11.99062 1.75472,5.49815 5.26418,10.00193 3.45094,4.56228 8.1887,6.84343 4.79626,2.28114 10.76232,2.28114 6.08304,0 10.70382,-2.57359 4.67928,-2.6321 7.77928,-7.72079 v 9.47551 h 14.33022 v -84.69469 z m -15.09065,73.17201 q -3.09999,0 -5.73209,-1.2868 -2.57357,-1.28681 -4.67925,-3.86041 -2.10567,-2.57359 -3.15851,-5.90755 -1.05284,-3.39249 -1.05284,-7.48683 0,-4.5623 1.05284,-8.13023 1.05284,-3.56794 3.21699,-6.08304 2.16417,-2.51512 4.73776,-3.8019 2.63208,-1.28681 5.73212,-1.28681 2.92453,0 5.49811,1.16981 2.63208,1.11135 4.91325,3.45097 2.28114,2.33963 3.39244,5.84908 1.16983,3.45095 1.16983,8.01323 0,4.67927 -1.05285,8.30572 -1.05283,3.56792 -3.21699,6.08301 -2.16416,2.51512 -4.9132,3.74343 -2.6906,1.22832 -5.90761,1.22832 z"
           id="path956"
           style="stroke-width:0.299471" />
        <path
           d="m 1005.3383,-220.61458 q -3.2754,2.39812 -7.3698,3.6264 -4.09438,1.16983 -8.83211,1.16983 -7.42836,0 -12.40006,-3.45097 -4.91322,-3.50943 -6.49248,-10.11889 h 38.07755 q 0.4094,-2.63208 0.5849,-4.79624 0.2339,-2.16416 0.2339,-3.80192 0,-6.84341 -1.7547,-12.10758 -1.6962,-5.32265 -5.1472,-8.8906 -3.45092,-3.56794 -8.1887,-5.38115 -4.73775,-1.81322 -10.64532,-1.81322 -5.90758,0 -10.87931,2.10565 -4.97172,2.04719 -8.8906,6.14153 -3.91886,4.15285 -5.90756,9.88496 -1.98868,5.73209 -1.98868,12.92646 0,6.78495 2.10566,12.40006 2.1057,5.55662 6.25849,9.82645 4.15287,4.32832 9.88499,6.49249 5.79057,2.16416 12.98493,2.16416 5.96607,0.0585 10.58685,-0.93586 4.62075,-0.99434 7.77925,-2.98302 z m -9.82642,-19.53593 h -25.50201 q 1.05283,-7.19438 4.79624,-10.93778 3.8019,-3.80192 8.94909,-3.80192 5.61513,0 8.5397,3.56795 2.98301,3.50945 3.21698,9.35853 z"
           id="path958"
           style="stroke-width:0.299471" />
        <path
           d="m 1036.6894,-265.53552 h -14.3887 l -0.1171,60.71345 h 14.5058 v -31.40955 q 0,-3.50948 0.9358,-6.49248 0.9359,-3.04154 2.8076,-5.43966 1.8132,-2.39811 4.2113,-3.56794 2.3981,-1.2283 5.3226,-1.2283 1.6963,0 3.2171,0.29245 1.5792,0.29245 2.9245,0.87735 v -13.86231 q -0.7604,-0.23397 -1.8132,-0.29245 -0.9944,-0.11703 -2.2812,-0.11703 -5.5566,0 -9.417,2.86606 -3.8019,2.80757 -5.9075,8.42268 z"
           id="path960"
           style="stroke-width:0.299471" />
        <path
           d="m 1062.7178,-230.44105 v -12.1076 h 30.4737 v 12.1076 z"
           style="font-weight:700;font-size:400px;font-family:'FAU Chimera', 'FAU Chimera_MSFontService', sans-serif;fill:#243975;stroke-width:0.299471"
           id="path962" />
        <path
           d="m 1154.8993,-235.70523 q 0,9.00759 -4.1528,13.56986 -4.1529,4.50382 -12.3416,4.50382 -3.6264,0 -6.6094,-1.05285 -2.9831,-1.05283 -5.2642,-3.10001 -2.2812,-2.04718 -3.451,-5.38114 -1.1113,-3.39248 -1.1113,-7.95477 v -50.41908 h -15.0906 v 50.53608 q 0,7.48681 2.1641,13.33592 2.1642,5.79057 6.434,9.82644 4.2114,4.03586 10.0019,6.08302 5.7906,1.98869 12.9265,1.98869 7.3114,0 13.1019,-2.04715 5.8491,-2.10568 10.0604,-6.14154 4.2114,-4.03588 6.3171,-10.00193 2.1056,-6.02455 2.1056,-13.86232 v -49.71721 h -15.0906 z"
           style="font-weight:700;font-size:400px;font-family:'FAU Chimera', 'FAU Chimera_MSFontService', sans-serif;fill:#243975;stroke-width:0.299471"
           id="path964" />
        <path
           d="m 1200.0542,-265.53552 h -14.3887 v 60.71345 h 14.3887 v -32.57939 q 0,-4.03586 0.9359,-7.19437 0.9944,-3.15849 2.9245,-5.32265 1.8718,-2.16417 4.2114,-3.27549 2.3981,-1.11132 5.2056,-1.11132 4.9133,0 7.7793,3.1 2.8661,3.04153 2.8661,9.00759 v 37.37563 h 14.3887 v -40.35866 q 0,-10.06041 -5.2642,-15.55856 -5.2642,-5.55663 -14.3887,-5.55663 -6.7265,0.0585 -11.4057,2.86608 -4.6793,2.74904 -7.2529,8.30568 z"
           style="font-weight:700;font-size:400px;font-family:'FAU Chimera', 'FAU Chimera_MSFontService', sans-serif;fill:#243975;stroke-width:0.299471"
           id="path966" />
        <path
           d="m 1252.5205,-283.78468 q 0,1.81323 0.5849,3.39247 0.6434,1.52077 1.9301,2.80758 1.2869,1.28679 2.8077,1.9302 1.5206,0.6434 3.3339,0.6434 1.8132,0 3.2755,-0.6434 1.5208,-0.64341 2.8076,-1.9302 1.2867,-1.28681 1.8716,-2.80758 0.6435,-1.57924 0.6435,-3.39247 0,-1.8132 -0.6435,-3.27546 -0.5849,-1.52077 -1.8716,-2.80758 -1.2868,-1.28678 -2.8076,-1.87168 -1.4623,-0.64341 -3.2755,-0.64341 -1.8133,0 -3.3339,0.64341 -1.5208,0.5849 -2.8077,1.87168 -1.2867,1.28681 -1.9301,2.80758 -0.5849,1.46226 -0.5849,3.27546 z m 1.4037,78.96261 h 14.3888 v -60.71345 h -14.3888 z"
           style="font-weight:700;font-size:400px;font-family:'FAU Chimera', 'FAU Chimera_MSFontService', sans-serif;fill:#243975;stroke-width:0.299471"
           id="path968" />
        <path
           d="m 1300.132,-204.82207 h 15.6171 l 22.285,-60.71345 h -14.8567 l -8.4226,25.73595 q -2.8076,8.42267 -4.5039,14.38874 -1.6963,5.96606 -2.2812,9.30003 l -0.4094,-2.10566 q -0.2339,-1.11134 -0.7603,-3.10004 -0.5265,-2.04715 -1.3454,-5.03018 -0.8188,-2.92455 -1.8717,-6.31701 -1.0528,-3.39246 -2.2226,-7.13588 l -8.0133,-25.73595 h -15.0906 z"
           style="font-weight:700;font-size:400px;font-family:'FAU Chimera', 'FAU Chimera_MSFontService', sans-serif;fill:#243975;stroke-width:0.299471"
           id="path970" />
        <path
           d="m 1392.84,-220.61458 q -3.2755,2.39812 -7.3699,3.6264 -4.0943,1.16983 -8.8321,1.16983 -7.4284,0 -12.4001,-3.45097 -4.9132,-3.50943 -6.4925,-10.11889 h 38.0775 q 0.4095,-2.63208 0.5849,-4.79624 0.2341,-2.16416 0.2341,-3.80192 0,-6.84341 -1.7547,-12.10758 -1.6964,-5.32265 -5.1473,-8.8906 -3.4509,-3.56794 -8.1887,-5.38115 -4.7378,-1.81322 -10.6454,-1.81322 -5.9075,0 -10.8792,2.10565 -4.9717,2.04719 -8.8906,6.14153 -3.9189,4.15285 -5.9076,9.88496 -1.9887,5.73209 -1.9887,12.92646 0,6.78495 2.1057,12.40006 2.1057,5.55662 6.2585,9.82645 4.1528,4.32832 9.885,6.49249 5.7906,2.16416 12.9849,2.16416 5.9661,0.0585 10.5868,-0.93586 4.6208,-0.99434 7.7794,-2.98302 z m -9.8265,-19.53593 h -25.502 q 1.0529,-7.19438 4.7962,-10.93778 3.8019,-3.80192 8.9491,-3.80192 5.6151,0 8.5397,3.56795 2.983,3.50945 3.217,9.35853 z"
           style="font-weight:700;font-size:400px;font-family:'FAU Chimera', 'FAU Chimera_MSFontService', sans-serif;fill:#243975;stroke-width:0.299471"
           id="path972" />
        <path
           d="m 1424.191,-265.53552 h -14.3887 l -0.1168,60.71345 h 14.5058 v -31.40955 q 0,-3.50948 0.9359,-6.49248 0.9357,-3.04154 2.8075,-5.43966 1.8132,-2.39811 4.2114,-3.56794 2.3981,-1.2283 5.3226,-1.2283 1.6963,0 3.2169,0.29245 1.5793,0.29245 2.9246,0.87735 v -13.86231 q -0.7603,-0.23397 -1.8131,-0.29245 -0.9944,-0.11703 -2.2813,-0.11703 -5.5566,0 -9.417,2.86606 -3.8018,2.80757 -5.9075,8.42268 z"
           style="font-weight:700;font-size:400px;font-family:'FAU Chimera', 'FAU Chimera_MSFontService', sans-serif;fill:#243975;stroke-width:0.299471"
           id="path974" />
        <path
           d="m 1488.3554,-263.66383 q -2.983,-1.28679 -6.9019,-1.9302 -3.8604,-0.70189 -8.4227,-0.70189 -4.7377,0 -8.7736,1.22831 -3.9774,1.16983 -7.1359,3.56794 -3.1584,2.39815 -4.7962,5.73211 -1.5793,3.33396 -1.5793,7.48683 0,5.61511 3.334,9.94343 3.334,4.26984 9.9434,7.25284 0.1168,0.0585 0.234,0.17557 0.1756,0.0585 0.3509,0.11703 0.1757,0.0585 0.2925,0.11703 0.1756,0.0585 0.2924,0.11703 0.059,0.0585 0.1756,0.11679 0.1756,0.0585 0.3509,0.11703 1.6379,0.70191 2.7492,1.22833 1.1698,0.46791 1.7547,0.70189 0.5849,0.29243 1.3452,0.76037 0.8189,0.40941 1.8133,0.99433 0.9944,0.58492 1.6377,1.2283 0.7019,0.64343 1.1114,1.22831 0.3508,0.58492 0.5264,1.34529 0.1755,0.7019 0.1755,1.46229 0,2.63208 -2.2227,4.15284 -2.1641,1.52077 -6.1414,1.52077 -4.6793,-0.0585 -9.0661,-1.40379 -4.3283,-1.34529 -8.3057,-4.03587 v 13.21892 q 3.4509,1.81322 8.0131,2.74907 4.5624,0.93588 10.1775,0.93588 5.0887,0 9.183,-1.16983 4.0944,-1.22831 7.1359,-3.62645 2.9831,-2.39809 4.5039,-5.73209 1.5791,-3.33396 1.5791,-7.54532 0,-6.08302 -3.7433,-9.94343 -3.6849,-3.8604 -10.0605,-6.96041 -0.4679,-0.23396 -1.1113,-0.52642 -0.6434,-0.29246 -1.4623,-0.70189 -0.8188,-0.35093 -1.5206,-0.64339 -0.6436,-0.29244 -1.1115,-0.52641 -0.4678,-0.23397 -1.0527,-0.52642 -0.585,-0.29246 -1.2284,-0.58492 -0.6434,-0.29246 -1.1698,-0.64339 -0.5264,-0.35093 -0.8774,-0.6434 -0.4094,-0.29245 -0.7603,-0.64338 -0.351,-0.35096 -0.7604,-0.76038 -0.4094,-0.40946 -0.702,-0.8189 -0.2339,-0.40943 -0.3508,-0.81887 -0.1757,-0.40944 -0.2925,-0.81887 -0.059,-0.46792 -0.059,-0.93585 0,-2.51512 2.1056,-4.09434 2.1642,-1.63776 5.8492,-1.63776 4.5037,0.0585 8.2471,0.93586 3.7435,0.87736 6.7265,2.69058 z"
           style="font-weight:700;font-size:400px;font-family:'FAU Chimera', 'FAU Chimera_MSFontService', sans-serif;fill:#243975;stroke-width:0.299471"
           id="path976" />
        <path
           d="m 1502.3347,-283.78468 q 0,1.81323 0.5849,3.39247 0.6434,1.52077 1.9303,2.80758 1.2867,1.28679 2.8075,1.9302 1.5208,0.6434 3.334,0.6434 1.8131,0 3.2755,-0.6434 1.5207,-0.64341 2.8075,-1.9302 1.2869,-1.28681 1.8716,-2.80758 0.6435,-1.57924 0.6435,-3.39247 0,-1.8132 -0.6435,-3.27546 -0.5847,-1.52077 -1.8716,-2.80758 -1.2868,-1.28678 -2.8075,-1.87168 -1.4624,-0.64341 -3.2755,-0.64341 -1.8132,0 -3.334,0.64341 -1.5208,0.5849 -2.8075,1.87168 -1.2869,1.28681 -1.9303,2.80758 -0.5849,1.46226 -0.5849,3.27546 z m 1.4039,78.96261 h 14.3886 v -60.71345 h -14.3886 z"
           style="font-weight:700;font-size:400px;font-family:'FAU Chimera', 'FAU Chimera_MSFontService', sans-serif;fill:#243975;stroke-width:0.299471"
           id="path978" />
        <path
           d="m 1551.7594,-254.77323 h 15.0907 v -10.76229 h -15.0907 v -14.6227 h -14.3888 v 14.6227 h -9.0659 v 10.76229 h 9.0659 v 30.64919 q 0,9.88497 4.9134,14.91515 4.9717,4.97173 14.7396,4.97173 3.2755,0 5.9661,-0.52641 2.7491,-0.52641 4.8547,-1.52077 v -12.34156 q -1.9302,1.28681 -4.0359,1.93018 -2.1057,0.58492 -4.3868,0.58492 -3.5679,0 -5.615,-1.9302 -2.0473,-1.98869 -2.0473,-5.84909 z"
           style="font-weight:700;font-size:400px;font-family:'FAU Chimera', 'FAU Chimera_MSFontService', sans-serif;fill:#243975;stroke-width:0.299471"
           id="path980" />
        <path
           d="m 1610.2502,-284.66203 q 0,1.52078 0.5849,2.80756 0.585,1.28681 1.6963,2.39811 1.1113,1.11133 2.5736,1.69625 1.4623,0.52642 3.2755,0.52642 1.8131,0 3.2755,-0.52642 1.4623,-0.58492 2.5736,-1.69625 1.1113,-1.1113 1.6377,-2.39811 0.5849,-1.28678 0.5849,-2.80756 0,-3.10001 -2.3396,-5.26417 -2.2812,-2.16416 -5.7321,-2.16416 -3.3925,0 -5.7907,2.16416 -2.3396,2.10566 -2.3396,5.26417 z m -12.2829,0 q 0,-1.52076 -0.585,-2.80754 -0.5264,-1.34529 -1.6378,-2.45663 -1.1113,-1.11132 -2.6321,-1.63774 -1.4622,-0.52642 -3.2755,-0.52642 -1.8131,0 -3.2754,0.52642 -1.4623,0.52642 -2.5736,1.63774 -1.1113,1.11134 -1.6963,2.45663 -0.5263,1.28678 -0.5263,2.80754 0,1.52078 0.5263,2.80756 0.585,1.28681 1.6963,2.39811 1.1113,1.11133 2.5736,1.63775 1.4623,0.52644 3.2754,0.52644 3.568,0 5.8491,-2.10568 2.2813,-2.16416 2.2813,-5.26418 z m -16.7284,35.50393 q 4.0358,-2.69058 8.4811,-4.03587 4.5037,-1.34528 9.3586,-1.34528 6.3169,0 8.949,2.63209 2.6906,2.63208 2.6906,7.66229 v 3.74341 h -8.8907 q -12.2245,0 -18.717,4.91322 -6.434,4.91324 -6.434,13.51138 0,3.8019 1.2869,7.0189 1.2868,3.15849 3.8019,5.67361 2.515,2.5151 5.9659,3.8019 3.4511,1.22832 7.7209,1.22832 5.7905,0 9.768,-1.93021 3.9773,-1.9887 6.083,-5.84908 v 7.31135 h 14.2717 v -38.83789 q 0,-11.4642 -6.2,-17.19629 -6.2001,-5.79061 -18.483,-5.79061 -6.3756,0 -11.3473,1.05283 -4.9132,1.05283 -8.3056,3.15852 z m 29.4793,18.24914 v 5.73208 q 0,4.5623 -2.7491,7.36986 -2.6905,2.80754 -7.4868,2.80754 -4.3868,0 -6.6095,-1.93019 -2.2226,-1.93019 -2.2226,-5.73209 0,-3.62643 2.983,-5.90756 3.0415,-2.33964 8.6566,-2.33964 z"
           style="font-weight:700;font-size:400px;font-family:'FAU Chimera', 'FAU Chimera_MSFontService', sans-serif;fill:#243975;stroke-width:0.299471"
           id="path982" />
        <path
           d="m 1657.8618,-254.77323 h 15.0906 v -10.76229 h -15.0906 v -14.6227 h -14.3888 v 14.6227 h -9.066 v 10.76229 h 9.066 v 30.64919 q 0,9.88497 4.9132,14.91515 4.9718,4.97173 14.7398,4.97173 3.2755,0 5.966,-0.52641 2.7491,-0.52641 4.8548,-1.52077 v -12.34156 q -1.9303,1.28681 -4.0359,1.93018 -2.1057,0.58492 -4.3869,0.58492 -3.5678,0 -5.615,-1.9302 -2.0472,-1.98869 -2.0472,-5.84909 z"
           style="font-weight:700;font-size:400px;font-family:'FAU Chimera', 'FAU Chimera_MSFontService', sans-serif;fill:#243975;stroke-width:0.299471"
           id="path984" />
        <path
           d="m 11.914063,-76.220738 q 4.445302,2.515116 11.873634,2.515116 9.241547,0 14.681194,-5.322674 5.439645,-5.381165 5.439645,-16.494392 V -154.42295 H 31.566974 v 59.368177 q 0,10.469852 -9.826455,10.469852 -4.913227,-0.05851 -9.826456,-3.041533 z"
           style="font-weight:500;font-family:'FAU Chimera Medium', 'FAU Chimera Medium_MSFontService', sans-serif;fill:#dc1d3c;stroke-width:0.299471"
           id="path986" />
        <path
           d="m 98.363478,-134.41908 v 33.0473 q 0,8.715141 -4.152849,13.511374 -4.094359,4.796257 -10.937781,4.796257 -5.381154,0 -8.422678,-3.275496 -3.04152,-3.333963 -3.04152,-9.533999 V -134.41908 H 59.935015 v 41.411485 q 0,9.358527 5.264174,14.681201 5.264169,5.322662 14.271758,5.322662 14.096284,0 18.892531,-11.113275 v 10.411385 h 11.756652 v -60.713458 z"
           style="font-weight:500;font-family:'FAU Chimera Medium', 'FAU Chimera Medium_MSFontService', sans-serif;fill:#dc1d3c;stroke-width:0.299471"
           id="path988" />
        <path
           d="m 138.37119,-134.41908 h -11.75666 v 60.713458 h 11.75666 v -32.930338 q 0,-8.77362 4.4453,-13.62833 4.4453,-4.85476 10.64533,-4.85476 5.26417,0 8.42267,3.39246 3.21699,3.33398 3.21699,9.70947 v 38.311498 h 11.69817 v -41.060548 q 0,-9.47553 -5.26418,-14.97366 -5.20567,-5.55662 -14.21326,-5.55662 -13.56987,0 -18.95102,11.28873 z"
           style="font-weight:500;font-family:'FAU Chimera Medium', 'FAU Chimera Medium_MSFontService', sans-serif;fill:#dc1d3c;stroke-width:0.299471"
           id="path990" />
        <path
           d="m 193.11859,-73.705622 h 11.81514 v -60.713458 h -11.81514 z m 13.27739,-79.313538 q 0,-3.10001 -2.16413,-5.26417 -2.16417,-2.16419 -5.2642,-2.16419 -3.10001,0 -5.20567,2.16419 -2.10566,2.16416 -2.10566,5.26417 0,3.10001 2.10566,5.20567 2.10566,2.10568 5.20567,2.10568 3.10003,0 5.2642,-2.16416 2.16413,-2.16416 2.16413,-5.14719 z"
           style="font-weight:500;font-family:'FAU Chimera Medium', 'FAU Chimera Medium_MSFontService', sans-serif;fill:#dc1d3c;stroke-width:0.299471"
           id="path992" />
        <path
           d="m 247.28107,-72.652787 q 13.51138,0 21.23219,-8.832122 7.77926,-8.890589 7.77926,-22.518971 0,-13.68684 -7.5453,-22.46046 -7.54534,-8.83211 -21.46615,-8.83211 -12.92647,0 -20.82271,9.06607 -7.89627,9.06607 -7.89627,22.69444 0,13.394393 7.66229,22.168013 7.6623,8.71514 21.05669,8.71514 z m -0.11703,-52.700243 q 8.59816,0 12.69251,6.08307 4.09435,6.02454 4.09435,15.50005 0,9.241542 -4.26981,15.207627 -4.26982,5.966049 -12.40004,5.966049 -7.66231,0 -12.10761,-6.141545 -4.38682,-6.141522 -4.38682,-15.149091 0,-9.12458 4.26982,-15.26612 4.32832,-6.20004 12.1076,-6.20004 z"
           style="font-weight:500;font-family:'FAU Chimera Medium', 'FAU Chimera Medium_MSFontService', sans-serif;fill:#dc1d3c;stroke-width:0.299471"
           id="path994" />
        <path
           d="m 301.2096,-134.41908 h -11.75665 v 60.713458 h 11.75665 v -32.345428 q 0,-7.42834 3.97736,-12.80948 3.97738,-5.38117 10.06043,-5.38117 3.10005,0 5.61513,1.05285 v -11.46419 q -2.04717,-0.40946 -3.74342,-0.40946 -11.46418,0 -15.9095,11.28874 z"
           style="font-weight:500;font-family:'FAU Chimera Medium', 'FAU Chimera Medium_MSFontService', sans-serif;fill:#dc1d3c;stroke-width:0.299471"
           id="path996" />
        <path
           d="m 358.12117,-83.18113 q -6.37549,0 -11.34724,-5.264195 -4.9717,-5.264172 -4.9717,-15.792505 0,-10.82079 4.9717,-15.79251 4.97175,-4.97173 11.75663,-4.97173 6.84344,0 11.28879,5.61513 4.44527,5.5566 4.44527,15.03213 0,10.060429 -4.5623,15.617031 -4.50377,5.556649 -11.58115,5.556649 z m -16.31894,-51.23795 h -11.75665 v 83.934315 h 11.75665 v -32.462414 q 6.31698,10.060405 18.42458,10.060405 11.87363,0 19.00954,-8.890589 7.13588,-8.890601 7.13588,-22.694427 0,-13.45288 -6.96042,-22.10952 -6.90191,-8.71514 -18.89251,-8.71514 -12.51704,0 -18.71707,10.1774 z"
           style="font-weight:500;font-family:'FAU Chimera Medium', 'FAU Chimera Medium_MSFontService', sans-serif;fill:#dc1d3c;stroke-width:0.299471"
           id="path998" />
        <path
           d="m 411.2308,-134.41908 h -11.75665 v 60.713458 h 11.75665 v -32.345428 q 0,-7.42834 3.97739,-12.80948 3.97737,-5.38117 10.06042,-5.38117 3.10003,0 5.6151,1.05285 v -11.46419 q -2.04715,-0.40946 -3.7434,-0.40946 -11.46419,0 -15.90951,11.28874 z"
           style="font-weight:500;font-family:'FAU Chimera Medium', 'FAU Chimera Medium_MSFontService', sans-serif;fill:#dc1d3c;stroke-width:0.299471"
           id="path1000" />
        <path
           d="m 463.34612,-72.652787 q 13.51138,0 21.23219,-8.832122 7.77924,-8.890589 7.77924,-22.518971 0,-13.68684 -7.54532,-22.46046 -7.5453,-8.83211 -21.46611,-8.83211 -12.92647,0 -20.82272,9.06607 -7.89625,9.06607 -7.89625,22.69444 0,13.394393 7.66228,22.168013 7.6623,8.71514 21.05669,8.71514 z m -0.11702,-52.700243 q 8.59815,0 12.69249,6.08307 4.09436,6.02454 4.09436,15.50005 0,9.241542 -4.26984,15.207627 -4.26981,5.966049 -12.40006,5.966049 -7.66229,0 -12.10758,-6.141545 -4.3868,-6.141522 -4.3868,-15.149091 0,-9.12458 4.26982,-15.26612 4.32834,-6.20004 12.10761,-6.20004 z"
           style="font-weight:500;font-family:'FAU Chimera Medium', 'FAU Chimera Medium_MSFontService', sans-serif;fill:#dc1d3c;stroke-width:0.299471"
           id="path1002" />
        <path
           d="m 536.81057,-158.51731 q -3.45096,-0.93583 -6.84343,-0.93583 -9.24155,0 -14.33023,5.43962 -5.0887,5.43966 -5.0887,14.91517 v 4.67927 h -9.70946 v 9.06605 h 9.70946 v 51.647408 h 11.75662 v -51.647408 h 12.8095 v -9.06605 h -12.8095 v -4.56228 q 0,-10.41137 8.77365,-10.41137 2.98305,0 5.73209,1.16983 z"
           style="font-weight:500;font-family:'FAU Chimera Medium', 'FAU Chimera Medium_MSFontService', sans-serif;fill:#dc1d3c;stroke-width:0.299471"
           id="path1004" />
        <path
           d="m 581.84851,-108.44917 h -29.3039 q 1.05281,-8.2472 5.38116,-12.63402 4.3283,-4.3868 10.29437,-4.3868 6.49247,0 9.94344,4.03587 3.45094,3.97737 3.68493,10.8208 z m 7.5453,20.939721 q -6.49248,4.56227 -16.14348,4.56227 -8.36419,0 -13.92079,-4.152834 -5.49815,-4.211361 -6.66795,-12.107607 h 39.89073 q 0.70189,-4.09436 0.70189,-7.77926 0,-13.68687 -6.84345,-20.93974 -6.78491,-7.25285 -18.4246,-7.25285 -11.8736,0 -19.53593,8.36417 -7.66227,8.30573 -7.66227,22.92843 0,13.745323 8.36418,22.284979 8.3642,8.481165 22.51896,8.481165 10.99626,0.05851 17.72271,-3.801901 z"
           style="font-weight:500;font-family:'FAU Chimera Medium', 'FAU Chimera Medium_MSFontService', sans-serif;fill:#dc1d3c;stroke-width:0.299471"
           id="path1006" />
        <path
           d="m 641.68461,-132.4304 q -5.49814,-2.6321 -15.3246,-2.6321 -9.00759,0 -14.97365,4.56228 -5.96608,4.5623 -5.96608,12.57555 -0.0583,11.4057 14.21326,17.25479 5.03023,2.164138 7.1359,3.216984 2.10566,0.994332 4.15286,3.100012 2.04717,2.105657 2.04717,4.737755 0,3.100035 -2.57361,5.030208 -2.57358,1.871705 -7.25285,1.871705 -9.00757,0 -17.37178,-5.14719 v 11.17173 q 7.19438,3.56795 17.95668,3.56795 9.82646,0 15.55855,-4.620784 5.79062,-4.620773 5.79062,-12.750993 0,-6.433976 -4.03589,-10.352857 -4.03583,-3.91889 -11.11327,-7.0189 -0.58489,-0.23397 -2.10564,-0.87737 -1.46227,-0.64339 -2.04717,-0.93584 -0.58492,-0.35097 -1.87171,-0.93585 -1.22831,-0.58492 -1.8132,-0.99434 -0.52643,-0.40946 -1.52081,-0.99438 -0.93585,-0.64338 -1.34526,-1.1698 -0.40944,-0.52642 -0.87735,-1.28678 -0.46794,-0.8189 -0.70192,-1.57927 -0.17556,-0.81886 -0.17556,-1.63773 0,-3.1 2.45661,-5.03023 2.45662,-1.93017 6.66794,-1.93017 9.24154,0.0585 15.09066,3.50943 z"
           style="font-weight:500;font-family:'FAU Chimera Medium', 'FAU Chimera Medium_MSFontService', sans-serif;fill:#dc1d3c;stroke-width:0.299471"
           id="path1008" />
        <path
           d="m 691.86972,-132.4304 q -5.49814,-2.6321 -15.3246,-2.6321 -9.00757,0 -14.97364,4.56228 -5.96608,4.5623 -5.96608,12.57555 -0.0585,11.4057 14.21329,17.25479 5.03018,2.164138 7.13586,3.216984 2.10566,0.994332 4.15286,3.100012 2.04717,2.105657 2.04717,4.737755 0,3.100035 -2.57358,5.030208 -2.57361,1.871705 -7.25287,1.871705 -9.00759,0 -17.37177,-5.14719 v 11.17173 q 7.19434,3.56795 17.95666,3.56795 9.82646,0 15.55857,-4.620784 5.79059,-4.620773 5.79059,-12.750993 0,-6.433976 -4.03589,-10.352857 -4.03584,-3.91889 -11.11322,-7.0189 -0.58495,-0.23397 -2.10568,-0.87737 -1.46227,-0.64339 -2.04717,-0.93584 -0.58488,-0.35097 -1.87172,-0.93585 -1.2283,-0.58492 -1.81322,-0.99434 -0.52642,-0.40946 -1.52075,-0.99438 -0.93584,-0.64338 -1.34528,-1.1698 -0.40943,-0.52642 -0.87737,-1.28678 -0.46792,-0.8189 -0.7019,-1.57927 -0.17556,-0.81886 -0.17556,-1.63773 0,-3.1 2.45659,-5.03023 2.45666,-1.93017 6.66797,-1.93017 9.24154,0.0585 15.09064,3.50943 z"
           style="font-weight:500;font-family:'FAU Chimera Medium', 'FAU Chimera Medium_MSFontService', sans-serif;fill:#dc1d3c;stroke-width:0.299471"
           id="path1010" />
        <path
           d="m 745.09636,-134.41908 v 33.0473 q 0,8.715141 -4.15286,13.511374 -4.09436,4.796257 -10.9378,4.796257 -5.38113,0 -8.42267,-3.275496 -3.0415,-3.333963 -3.0415,-9.533999 v -38.545436 h -11.87367 v 41.411485 q 0,9.358527 5.26422,14.681201 5.26417,5.322662 14.27172,5.322662 14.09628,0 18.89256,-11.113275 v 10.411385 h 11.75665 v -60.713458 z"
           style="font-weight:500;font-family:'FAU Chimera Medium', 'FAU Chimera Medium_MSFontService', sans-serif;fill:#dc1d3c;stroke-width:0.299471"
           id="path1012" />
        <path
           d="M 785.10405,-134.41908 H 773.3474 v 60.713458 h 11.75665 v -32.345428 q 0,-7.42834 3.97739,-12.80948 3.97736,-5.38117 10.0604,-5.38117 3.10003,0 5.61513,1.05285 v -11.46419 q -2.04716,-0.40946 -3.74341,-0.40946 -11.46421,0 -15.90951,11.28874 z"
           style="font-weight:500;font-family:'FAU Chimera Medium', 'FAU Chimera Medium_MSFontService', sans-serif;fill:#dc1d3c;stroke-width:0.299471"
           id="path1014" />
        <path
           d="m 875.06291,-158.51731 q -3.45095,-0.93583 -6.84342,-0.93583 -9.24152,0 -14.33025,5.43962 -5.0887,5.43966 -5.0887,14.91517 v 4.67927 h -9.70946 v 9.06605 h 9.70946 v 51.647408 h 11.75665 v -51.647408 h 12.80952 v -9.06605 h -12.80952 v -4.56228 q 0,-10.41137 8.77364,-10.41137 2.98301,0 5.73208,1.16983 z"
           style="font-weight:500;font-family:'FAU Chimera Medium', 'FAU Chimera Medium_MSFontService', sans-serif;fill:#dc1d3c;stroke-width:0.299471"
           id="path1016" />
        <path
           d="m 921.50464,-134.41908 v 33.0473 q 0,8.715141 -4.15285,13.511374 -4.09436,4.796257 -10.93779,4.796257 -5.38116,0 -8.42269,-3.275496 -3.04151,-3.333963 -3.04151,-9.533999 v -38.545436 h -11.87364 v 41.411485 q 0,9.358527 5.26418,14.681201 5.26415,5.322662 14.27174,5.322662 14.09627,0 18.89256,-11.113275 v 10.411385 h 11.75665 v -60.713458 z m -33.39828,-19.185 q 0,2.92454 1.93021,4.91324 1.9887,1.98867 5.43965,1.98867 3.45094,0 5.43964,-1.98867 1.98869,-1.9887 1.98869,-4.91324 0,-2.92453 -1.98869,-4.91323 -1.9887,-1.98869 -5.43964,-1.98869 -3.45095,0 -5.43965,1.98869 -1.93021,1.9887 -1.93021,4.91323 z m 26.73031,0.0585 q 0,2.92453 1.93018,4.91324 1.9887,1.9887 5.43965,1.9887 3.45094,0 5.43967,-1.9887 1.98868,-1.98871 1.98868,-4.91324 0,-2.92453 -1.98868,-4.91321 -1.98873,-1.9887 -5.43967,-1.9887 -3.45095,0 -5.43965,1.9887 -1.93018,1.98868 -1.93018,4.91321 z"
           style="font-weight:500;font-family:'FAU Chimera Medium', 'FAU Chimera Medium_MSFontService', sans-serif;fill:#dc1d3c;stroke-width:0.299471"
           id="path1018" />
        <path
           d="M 961.51235,-134.41908 H 949.7557 v 60.713458 h 11.75665 v -32.345428 q 0,-7.42834 3.97737,-12.80948 3.97736,-5.38117 10.06041,-5.38117 3.10001,0 5.61512,1.05285 v -11.46419 q -2.04715,-0.40946 -3.7434,-0.40946 -11.46421,0 -15.9095,11.28874 z"
           style="font-weight:500;font-family:'FAU Chimera Medium', 'FAU Chimera Medium_MSFontService', sans-serif;fill:#dc1d3c;stroke-width:0.299471"
           id="path1020" />
        <path
           d="m 17.119745,57.411085 h 12.28307 V -23.306219 H 17.119745 Z M 45.72175,17.40339 75.318098,-23.306219 H 60.34445 L 30.982065,17.52037 61.514267,57.411085 h 15.617048 z"
           style="font-weight:500;font-family:'FAU Chimera Medium', 'FAU Chimera Medium_MSFontService', sans-serif;fill:#dc1d3c;stroke-width:0.299471"
           id="path1022" />
        <path
           d="m 112.10882,58.463937 q 13.51137,0 21.23216,-8.832116 7.77928,-8.890594 7.77928,-22.518942 0,-13.686871 -7.54531,-22.4604863 -7.54532,-8.8321146 -21.46613,-8.8321146 -12.926471,0 -20.822731,9.0660943 -7.896258,9.0660506 -7.896258,22.6944206 0,13.394391 7.662294,22.168007 7.662296,8.715137 21.056695,8.715137 z M 111.99183,5.7637225 q 8.59816,0 12.69252,6.0830415 4.09435,6.024563 4.09435,15.500072 0,9.241551 -4.26983,15.207593 -4.26984,5.966062 -12.40005,5.966062 -7.6623,0 -12.1076,-6.141519 -4.386813,-6.141542 -4.386813,-15.149136 0,-9.124551 4.269829,-15.266093 4.328324,-6.2000205 12.107594,-6.2000205 z"
           style="font-weight:500;font-family:'FAU Chimera Medium', 'FAU Chimera Medium_MSFontService', sans-serif;fill:#dc1d3c;stroke-width:0.299471"
           id="path1024" />
        <path
           d="M 166.03735,-3.3023506 H 154.28069 V 57.411085 h 11.75666 V 24.480784 q 0,-9.124574 4.15285,-13.803828 4.21133,-4.6792762 9.35852,-4.6792762 10.70381,0.058526 10.70381,13.1019342 v 38.311471 h 11.69818 V 24.480784 q 0,-9.124574 4.15282,-13.803828 4.15286,-4.6792762 9.41703,-4.6792762 10.52834,0.058526 10.52834,13.1019342 v 38.311471 h 11.75666 V 16.584518 q 0,-9.7094657 -4.85472,-15.2076133 -4.85474,-5.5566266 -14.21329,-5.5566266 -5.96606,0 -10.76229,3.1000097 -4.79626,3.0415319 -7.31135,8.6566363 -3.8604,-11.756646 -17.48876,-11.756646 -11.99062,0.058526 -17.1378,10.5868384 z"
           style="font-weight:500;font-family:'FAU Chimera Medium', 'FAU Chimera Medium_MSFontService', sans-serif;fill:#dc1d3c;stroke-width:0.299471"
           id="path1026" />
        <path
           d="M 265.41322,-3.3023506 H 253.65658 V 57.411085 h 11.75664 V 24.480784 q 0,-9.124574 4.15285,-13.803828 4.21133,-4.6792762 9.35852,-4.6792762 10.70382,0.058526 10.70382,13.1019342 v 38.311471 h 11.69817 V 24.480784 q 0,-9.124574 4.15283,-13.803828 4.15287,-4.6792762 9.41703,-4.6792762 10.52837,0.058526 10.52837,13.1019342 v 38.311471 h 11.75665 V 16.584518 q 0,-9.7094657 -4.85476,-15.2076133 -4.85474,-5.5566266 -14.21326,-5.5566266 -5.96606,0 -10.7623,3.1000097 -4.79625,3.0415319 -7.31137,8.6566363 -3.86038,-11.756646 -17.48872,-11.756646 -11.99064,0.058526 -17.13783,10.5868384 z"
           style="font-weight:500;font-family:'FAU Chimera Medium', 'FAU Chimera Medium_MSFontService', sans-serif;fill:#dc1d3c;stroke-width:0.299471"
           id="path1028" />
        <path
           d="M 390.75901,-3.3023506 V 29.74493 q 0,8.715159 -4.15283,13.511392 -4.09434,4.796255 -10.93778,4.796255 -5.38114,0 -8.42267,-3.275489 -3.04151,-3.333967 -3.04151,-9.534009 V -3.3023506 H 352.33057 V 38.109132 q 0,9.35853 5.26416,14.681199 5.2642,5.32267 14.27177,5.32267 14.09628,0 18.89251,-11.113254 v 10.411338 h 11.75665 V -3.3023506 Z"
           style="font-weight:500;font-family:'FAU Chimera Medium', 'FAU Chimera Medium_MSFontService', sans-serif;fill:#dc1d3c;stroke-width:0.299471"
           id="path1030" />
        <path
           d="M 430.76674,-3.3023506 H 419.01009 V 57.411085 h 11.75665 V 24.480784 q 0,-8.773637 4.44529,-13.628371 4.44532,-4.8547332 10.64535,-4.8547332 5.26416,0 8.42267,3.3924672 3.217,3.333968 3.217,9.709467 V 57.411085 H 469.1952 V 16.350561 q 0,-9.4755087 -5.26417,-14.9736563 -5.20568,-5.5566266 -14.21327,-5.5566266 -13.56988,0 -18.95102,11.2887315 z"
           style="font-weight:500;font-family:'FAU Chimera Medium', 'FAU Chimera Medium_MSFontService', sans-serif;fill:#dc1d3c;stroke-width:0.299471"
           id="path1032" />
        <path
           d="M 485.51415,57.411085 H 497.3293 V -3.3023506 h -11.81515 z m 13.2774,-79.313516 q 0,-3.100032 -2.16414,-5.264171 -2.16418,-2.16418 -5.26422,-2.16418 -3.09996,0 -5.20567,2.16418 -2.10563,2.164139 -2.10563,5.264171 0,3.100009 2.10563,5.20569 2.10571,2.105659 5.20567,2.105659 3.10004,0 5.26422,-2.164159 2.16414,-2.16416 2.16414,-5.14719 z"
           style="font-weight:500;font-family:'FAU Chimera Medium', 'FAU Chimera Medium_MSFontService', sans-serif;fill:#dc1d3c;stroke-width:0.299471"
           id="path1034" />
        <path
           d="m 514.29162,57.411085 h 11.75664 v -83.875814 h -11.75664 z m 25.79443,-31.760473 23.1039,-28.9529626 h -13.80386 l -22.86992,28.9529626 23.39632,31.760473 h 13.97933 z"
           style="font-weight:500;font-family:'FAU Chimera Medium', 'FAU Chimera Medium_MSFontService', sans-serif;fill:#dc1d3c;stroke-width:0.299471"
           id="path1036" />
        <path
           d="m 606.18069,30.329845 v 6.843436 q 0,5.14719 -3.33399,8.3057 -3.27546,3.158511 -9.00759,3.158511 -5.03018,0 -7.66228,-2.339638 -2.63212,-2.398138 -2.63212,-6.609457 0,-4.09436 3.39251,-6.726455 3.39247,-2.632097 10.11888,-2.632097 z M 575.64846,11.144871 q 7.89625,-5.3811485 17.60575,-5.3811485 6.9604,0 9.94342,3.2169889 2.98306,3.1585096 2.98306,9.3585306 v 3.509445 h -10.06044 q -11.87363,0 -18.48308,4.854734 -6.55096,4.796254 -6.55096,13.56987 0,7.662286 5.20567,12.634019 5.26415,4.971733 13.86231,4.971733 11.69816,0 16.37742,-7.662307 v 7.194349 h 11.63967 V 18.865657 q 0,-23.1623581 -23.86426,-23.1623581 -11.58114,0 -18.65856,4.09433901 z"
           style="font-weight:500;font-family:'FAU Chimera Medium', 'FAU Chimera Medium_MSFontService', sans-serif;fill:#dc1d3c;stroke-width:0.299471"
           id="path1038" />
        <path
           d="m 649.11292,5.7637225 h 15.96801 V -3.3023506 H 649.11292 V -18.159006 h -11.81515 v 14.8566554 h -9.47549 v 9.0660731 h 9.47549 V 38.986483 Q 637.23926,57.996 656.07334,57.996 q 5.73212,0 9.70946,-2.164137 v -10.52836 q -3.33397,2.632074 -8.2472,2.632074 -8.42268,0.05852 -8.42268,-8.715116 z"
           style="font-weight:500;font-family:'FAU Chimera Medium', 'FAU Chimera Medium_MSFontService', sans-serif;fill:#dc1d3c;stroke-width:0.299471"
           id="path1040" />
        <path
           d="m 679.17721,57.411085 h 11.81513 V -3.3023506 h -11.81513 z m 13.27739,-79.313516 q 0,-3.100032 -2.16416,-5.264171 -2.16416,-2.16418 -5.26417,-2.16418 -3.09999,0 -5.20568,2.16418 -2.10565,2.164139 -2.10565,5.264171 0,3.100009 2.10565,5.20569 2.10569,2.105659 5.20568,2.105659 3.10001,0 5.26417,-2.164159 2.16416,-2.16416 2.16416,-5.14719 z"
           style="font-weight:500;font-family:'FAU Chimera Medium', 'FAU Chimera Medium_MSFontService', sans-serif;fill:#dc1d3c;stroke-width:0.299471"
           id="path1042" />
        <path
           d="m 733.33969,58.463937 q 13.51137,0 21.23218,-8.832116 7.77924,-8.890594 7.77924,-22.518942 0,-13.686871 -7.5453,-22.4604863 -7.54531,-8.8321146 -21.46612,-8.8321146 -12.92648,0 -20.82271,9.0660943 -7.89627,9.0660506 -7.89627,22.6944206 0,13.394391 7.66228,22.168007 7.66231,8.715137 21.0567,8.715137 z M 733.22266,5.7637225 q 8.59816,0 12.6925,6.0830415 4.09436,6.024563 4.09436,15.500072 0,9.241551 -4.26984,15.207593 -4.26982,5.966062 -12.40006,5.966062 -7.66228,0 -12.10758,-6.141519 -4.3868,-6.141542 -4.3868,-15.149136 0,-9.124551 4.26981,-15.266093 4.32835,-6.2000205 12.10761,-6.2000205 z"
           style="font-weight:500;font-family:'FAU Chimera Medium', 'FAU Chimera Medium_MSFontService', sans-serif;fill:#dc1d3c;stroke-width:0.299471"
           id="path1044" />
        <path
           d="M 787.26821,-3.3023506 H 775.51156 V 57.411085 h 11.75665 V 24.480784 q 0,-8.773637 4.4453,-13.628371 4.44532,-4.8547332 10.64534,-4.8547332 5.26417,0 8.42267,3.3924672 3.21702,3.333968 3.21702,9.709467 v 38.311471 h 11.69815 V 16.350561 q 0,-9.4755087 -5.26417,-14.9736563 -5.20572,-5.5566266 -14.21329,-5.5566266 -13.56986,0 -18.95102,11.2887315 z"
           style="font-weight:500;font-family:'FAU Chimera Medium', 'FAU Chimera Medium_MSFontService', sans-serif;fill:#dc1d3c;stroke-width:0.299471"
           id="path1046" />
        <path
           d="m 876.17427,-1.3136695 q -5.49816,-2.6320951 -15.32463,-2.6320951 -9.00757,0 -14.97363,4.56229722 -5.96606,4.56227488 -5.96606,12.57551838 -0.0585,11.405711 14.21326,17.254795 5.03019,2.164138 7.13589,3.216989 2.10565,0.994329 4.15285,3.100009 2.04715,2.105681 2.04715,4.737777 0,3.10001 -2.57357,5.03019 -2.57362,1.871723 -7.25287,1.871723 -9.00759,0 -17.37178,-5.147212 v 11.171754 q 7.19437,3.567924 17.95668,3.567924 9.82646,0 15.55856,-4.620775 5.79059,-4.620776 5.79059,-12.750976 0,-6.433999 -4.03589,-10.35286 -4.03583,-3.918904 -11.1132,-7.018914 -0.58495,-0.233958 -2.10571,-0.877373 -1.46227,-0.643393 -2.04715,-0.93585 -0.58494,-0.350958 -1.87171,-0.935851 -1.22833,-0.584915 -1.81322,-0.994329 -0.52642,-0.409458 -1.52074,-0.994373 -0.93588,-0.643372 -1.34529,-1.169809 -0.40946,-0.526415 -0.87737,-1.286787 -0.46794,-0.818872 -0.70192,-1.579265 -0.17556,-0.818872 -0.17556,-1.637722 0,-3.1000113 2.45661,-5.0302122 2.4566,-1.9302021 6.66796,-1.9302021 9.24155,0.058526 15.09063,3.5094453 z"
           style="font-weight:500;font-family:'FAU Chimera Medium', 'FAU Chimera Medium_MSFontService', sans-serif;fill:#dc1d3c;stroke-width:0.299471"
           id="path1048" />
        <path
           d="m 904.77626,57.411085 h 13.2774 l 5.49815,-19.886868 q 5.6151,-20.237805 7.31135,-28.0170695 l 0.46791,2.3980955 q 0.58491,2.515117 2.45662,9.534009 1.8717,6.960414 4.38682,16.084965 l 5.6151,19.886868 h 13.45291 l 19.24346,-60.7134356 h -11.81513 l -6.02456,20.0038696 q -6.66793,22.343464 -8.1302,29.420856 l -0.46794,-2.339616 q -0.64341,-2.398139 -2.69059,-9.767967 -1.98866,-7.36985 -4.85476,-17.313273 l -6.02451,-20.0038696 h -11.34724 l -5.90756,20.0038696 q -6.31702,21.75857 -7.89627,29.303877 l -0.46791,-2.515095 q -0.46794,-2.515117 -2.39811,-9.767966 -1.93021,-7.31135 -4.67928,-16.90386 l -5.6151,-20.1208256 h -12.45857 z"
           style="font-weight:500;font-family:'FAU Chimera Medium', 'FAU Chimera Medium_MSFontService', sans-serif;fill:#dc1d3c;stroke-width:0.299471"
           id="path1050" />
        <path
           d="m 987.54075,57.411085 h 11.81513 V -3.3023506 h -11.81513 z m 13.27735,-79.313516 q 0,-3.100032 -2.16411,-5.264171 -2.16416,-2.16418 -5.26417,-2.16418 -3.09999,0 -5.20567,2.16418 -2.10566,2.164139 -2.10566,5.264171 0,3.100009 2.10566,5.20569 2.10568,2.105659 5.20567,2.105659 3.10001,0 5.26417,-2.164159 2.16411,-2.16416 2.16411,-5.14719 z"
           style="font-weight:500;font-family:'FAU Chimera Medium', 'FAU Chimera Medium_MSFontService', sans-serif;fill:#dc1d3c;stroke-width:0.299471"
           id="path1052" />
        <path
           d="m 1051.0033,-1.3136695 q -5.4982,-2.6320951 -15.3246,-2.6320951 -9.0076,0 -14.9737,4.56229722 -5.966,4.56227488 -5.966,12.57551838 -0.058,11.405711 14.2132,17.254795 5.0302,2.164138 7.1359,3.216989 2.1057,0.994329 4.1529,3.100009 2.0471,2.105681 2.0471,4.737777 0,3.10001 -2.5736,5.03019 -2.5735,1.871723 -7.2528,1.871723 -9.0076,0 -17.3718,-5.147212 v 11.171754 q 7.1944,3.567924 17.9567,3.567924 9.8264,0 15.5586,-4.620775 5.7906,-4.620776 5.7906,-12.750976 0,-6.433999 -4.0359,-10.35286 -4.0359,-3.918904 -11.1133,-7.018914 -0.5849,-0.233958 -2.1056,-0.877373 -1.4623,-0.643393 -2.0472,-0.93585 -0.5849,-0.350958 -1.8718,-0.935851 -1.2282,-0.584915 -1.8132,-0.994329 -0.5264,-0.409458 -1.5207,-0.994373 -0.9359,-0.643372 -1.3453,-1.169809 -0.4094,-0.526415 -0.8774,-1.286787 -0.4679,-0.818872 -0.7018,-1.579265 -0.1756,-0.818872 -0.1756,-1.637722 0,-3.1000113 2.4566,-5.0302122 2.4566,-1.9302021 6.6679,-1.9302021 9.2416,0.058526 15.0907,3.5094453 z"
           style="font-weight:500;font-family:'FAU Chimera Medium', 'FAU Chimera Medium_MSFontService', sans-serif;fill:#dc1d3c;stroke-width:0.299471"
           id="path1054" />
        <path
           d="m 1101.1884,-1.3136695 q -5.4981,-2.6320951 -15.3246,-2.6320951 -9.0076,0 -14.9736,4.56229722 -5.9661,4.56227488 -5.9661,12.57551838 -0.058,11.405711 14.2133,17.254795 5.0301,2.164138 7.1358,3.216989 2.1057,0.994329 4.1529,3.100009 2.0471,2.105681 2.0471,4.737777 0,3.10001 -2.5735,5.03019 -2.5736,1.871723 -7.2529,1.871723 -9.0076,0 -17.3717,-5.147212 v 11.171754 q 7.1943,3.567924 17.9566,3.567924 9.8265,0 15.5585,-4.620775 5.7907,-4.620776 5.7907,-12.750976 0,-6.433999 -4.0359,-10.35286 -4.0359,-3.918904 -11.1133,-7.018914 -0.5849,-0.233958 -2.1056,-0.877373 -1.4623,-0.643393 -2.0472,-0.93585 -0.5849,-0.350958 -1.8717,-0.935851 -1.2283,-0.584915 -1.8132,-0.994329 -0.5264,-0.409458 -1.5208,-0.994373 -0.9358,-0.643372 -1.3453,-1.169809 -0.4094,-0.526415 -0.8773,-1.286787 -0.4679,-0.818872 -0.702,-1.579265 -0.1755,-0.818872 -0.1755,-1.637722 0,-3.1000113 2.4566,-5.0302122 2.4566,-1.9302021 6.668,-1.9302021 9.2415,0.058526 15.0906,3.5094453 z"
           style="font-weight:500;font-family:'FAU Chimera Medium', 'FAU Chimera Medium_MSFontService', sans-serif;fill:#dc1d3c;stroke-width:0.299471"
           id="path1056" />
        <path
           d="m 1154.415,22.66756 h -29.3039 q 1.0529,-8.2472 5.3812,-12.633998 4.3283,-4.3868176 10.2944,-4.3868176 6.4924,0 9.9434,4.0358601 3.451,3.9773615 3.6849,10.8207965 z m 7.5453,20.939698 q -6.4924,4.562297 -16.1434,4.562297 -8.3642,0 -13.9208,-4.152839 -5.4982,-4.21134 -6.668,-12.107604 h 39.8907 q 0.7019,-4.094361 0.7019,-7.779286 0,-13.686849 -6.8434,-20.9396984 -6.7849,-7.2528502 -18.4246,-7.2528502 -11.8736,0 -19.5359,8.36418 -7.6623,8.3056786 -7.6623,22.9283786 0,13.745348 8.3641,22.285006 8.3642,8.481158 22.519,8.481158 10.9963,0.05852 17.7227,-3.801882 z"
           style="font-weight:500;font-family:'FAU Chimera Medium', 'FAU Chimera Medium_MSFontService', sans-serif;fill:#dc1d3c;stroke-width:0.299471"
           id="path1058" />
        <path
           d="M 1191.3227,-3.3023506 H 1179.566 V 57.411085 h 11.7567 V 24.480784 q 0,-8.773637 4.4453,-13.628371 4.4453,-4.8547332 10.6454,-4.8547332 5.2642,0 8.4226,3.3924672 3.217,3.333968 3.217,9.709467 v 38.311471 h 11.6982 V 16.350561 q 0,-9.4755087 -5.2642,-14.9736563 -5.2056,-5.5566266 -14.2132,-5.5566266 -13.5699,0 -18.9511,11.2887315 z"
           style="font-weight:500;font-family:'FAU Chimera Medium', 'FAU Chimera Medium_MSFontService', sans-serif;fill:#dc1d3c;stroke-width:0.299471"
           id="path1060" />
        <path
           d="m 1280.2287,-1.3136695 q -5.4981,-2.6320951 -15.3245,-2.6320951 -9.0077,0 -14.9737,4.56229722 -5.966,4.56227488 -5.966,12.57551838 -0.059,11.405711 14.2132,17.254795 5.0303,2.164138 7.1358,3.216989 2.1057,0.994329 4.1529,3.100009 2.0472,2.105681 2.0472,4.737777 0,3.10001 -2.5736,5.03019 -2.5736,1.871723 -7.2528,1.871723 -9.0077,0 -17.3718,-5.147212 v 11.171754 q 7.1944,3.567924 17.9567,3.567924 9.8264,0 15.5586,-4.620775 5.7905,-4.620776 5.7905,-12.750976 0,-6.433999 -4.0358,-10.35286 -4.036,-3.918904 -11.1133,-7.018914 -0.5849,-0.233958 -2.1057,-0.877373 -1.4622,-0.643393 -2.0471,-0.93585 -0.5849,-0.350958 -1.8718,-0.935851 -1.2283,-0.584915 -1.8132,-0.994329 -0.5264,-0.409458 -1.5207,-0.994373 -0.9359,-0.643372 -1.3453,-1.169809 -0.4095,-0.526415 -0.8774,-1.286787 -0.4679,-0.818872 -0.7018,-1.579265 -0.1757,-0.818872 -0.1757,-1.637722 0,-3.1000113 2.4567,-5.0302122 2.4566,-1.9302021 6.668,-1.9302021 9.2415,0.058526 15.0906,3.5094453 z"
           style="font-weight:500;font-family:'FAU Chimera Medium', 'FAU Chimera Medium_MSFontService', sans-serif;fill:#dc1d3c;stroke-width:0.299471"
           id="path1062" />
        <path
           d="m 1304.5025,27.346836 q 0,-9.358552 5.6735,-15.324593 5.6737,-6.0245632 15.1491,-6.0245632 7.4284,0.058526 13.2775,3.7434249 V -1.021212 q -6.551,-3.3924672 -14.4473,-3.3924672 -14.6227,0 -23.2208,9.3000516 -8.5396,9.3000076 -8.5396,22.3434636 0,13.394413 8.4811,22.401985 8.4812,8.949094 22.7529,8.949094 9.1246,0 14.9737,-3.567924 v -10.52836 q -6.2001,3.918903 -13.3944,3.918903 -9.7095,0 -15.0907,-5.907584 -5.3811,-5.907563 -5.615,-15.149114 z"
           style="font-weight:500;font-family:'FAU Chimera Medium', 'FAU Chimera Medium_MSFontService', sans-serif;fill:#dc1d3c;stroke-width:0.299471"
           id="path1064" />
        <path
           d="m 1363.8706,-27.283601 h -11.7566 v 84.694686 h 11.7566 V 24.480784 q 0,-9.358531 4.6208,-13.920828 4.6207,-4.5622762 10.5869,-4.5622762 5.1471,0 8.3056,3.4509674 3.217,3.4509458 3.217,9.6509668 v 38.311471 h 11.6981 V 16.701519 q 0,-9.8264667 -5.3811,-15.3246143 -5.3226,-5.5566266 -14.2133,-5.5566266 -13.6868,0 -18.834,11.2887315 z"
           style="font-weight:500;font-family:'FAU Chimera Medium', 'FAU Chimera Medium_MSFontService', sans-serif;fill:#dc1d3c;stroke-width:0.299471"
           id="path1066" />
        <path
           d="m 1450.0861,30.329845 v 6.843436 q 0,5.14719 -3.3341,8.3057 -3.2755,3.158511 -9.0075,3.158511 -5.0303,0 -7.6623,-2.339638 -2.632,-2.398138 -2.632,-6.609457 0,-4.09436 3.3924,-6.726455 3.3924,-2.632097 10.1189,-2.632097 z m -30.5323,-19.184974 q 7.8964,-5.3811485 17.6058,-5.3811485 6.9603,0 9.9434,3.2169889 2.9831,3.1585096 2.9831,9.3585306 v 3.509445 h -10.0605 q -11.8736,0 -18.4831,4.854734 -6.5509,4.796254 -6.5509,13.56987 0,7.662286 5.2056,12.634019 5.2642,4.971733 13.8624,4.971733 11.6982,0 16.3774,-7.662307 v 7.194349 h 11.6397 V 18.865657 q 0,-23.1623581 -23.8642,-23.1623581 -11.5813,0 -18.6587,4.09433901 z"
           style="font-weight:500;font-family:'FAU Chimera Medium', 'FAU Chimera Medium_MSFontService', sans-serif;fill:#dc1d3c;stroke-width:0.299471"
           id="path1068" />
        <path
           d="m 1509.1032,-27.400559 q -3.4509,-0.935871 -6.8433,-0.935871 -9.2416,0 -14.3303,5.439647 -5.0887,5.439648 -5.0887,14.9151571 v 4.6792753 h -9.7095 v 9.0660731 h 9.7095 V 57.411085 h 11.7567 V 5.7637225 h 12.8094 v -9.0660731 h -12.8094 v -4.5622748 q 0,-10.4113816 8.7736,-10.4113816 2.983,0 5.732,1.16983 z"
           style="font-weight:500;font-family:'FAU Chimera Medium', 'FAU Chimera Medium_MSFontService', sans-serif;fill:#dc1d3c;stroke-width:0.299471"
           id="path1070" />
        <path
           d="m 1533.0261,5.7637225 h 15.9679 v -9.0660731 h -15.9679 V -18.159006 h -11.8152 v 14.8566554 h -9.4756 v 9.0660731 h 9.4756 V 38.986483 q -0.059,19.009517 18.7756,19.009517 5.732,0 9.7094,-2.164137 v -10.52836 q -3.334,2.632074 -8.2472,2.632074 -8.4226,0.05852 -8.4226,-8.715116 z"
           style="font-weight:500;font-family:'FAU Chimera Medium', 'FAU Chimera Medium_MSFontService', sans-serif;fill:#dc1d3c;stroke-width:0.299471"
           id="path1072" />
      </g>
    </g>
  </g>
</svg>
